<svg width="102" height="120" viewBox="0 0 102 120" fill="none" xmlns="http://www.w3.org/2000/svg">
<path d="M100.895 69.8381C100.895 96.8889 78.4319 118.838 50.6974 118.838C22.9628 118.838 0.5 96.8889 0.5 69.8381C0.5 42.7874 22.9628 20.8381 50.6974 20.8381C78.4319 20.8381 100.895 42.7874 100.895 69.8381Z" stroke="white"/>
<line x1="50.5" y1="-1.96724e-08" x2="50.5" y2="119.119" stroke="white"/>
<rect x="23" y="29.1256" width="52" height="46.8664" fill="#090B13"/>
<rect x="24" y="75.9919" width="52" height="19.5276" fill="#090B13"/>
<path d="M26.33 52.7262V49.8212H32.91V75.1262H29.69V52.7262H26.33ZM37.9959 72.5712C40.9593 70.1912 43.2809 68.2428 44.9609 66.7262C46.6409 65.1862 48.0526 63.5878 49.1959 61.9312C50.3626 60.2512 50.9459 58.6062 50.9459 56.9962C50.9459 55.4795 50.5726 54.2895 49.8259 53.4262C49.1026 52.5395 47.9243 52.0962 46.2909 52.0962C44.7043 52.0962 43.4676 52.5978 42.5809 53.6012C41.7176 54.5812 41.2509 55.8995 41.1809 57.5562H38.1009C38.1943 54.9428 38.9876 52.9245 40.4809 51.5012C41.9743 50.0778 43.8993 49.3662 46.2559 49.3662C48.6593 49.3662 50.5609 50.0312 51.9609 51.3612C53.3843 52.6912 54.0959 54.5228 54.0959 56.8562C54.0959 58.7928 53.5126 60.6828 52.3459 62.5262C51.2026 64.3462 49.8959 65.9562 48.4259 67.3562C46.9559 68.7328 45.0776 70.3428 42.7909 72.1862H54.8309V74.8462H37.9959V72.5712ZM58.1278 72.5712C61.0911 70.1912 63.4128 68.2428 65.0928 66.7262C66.7728 65.1862 68.1844 63.5878 69.3278 61.9312C70.4944 60.2512 71.0778 58.6062 71.0778 56.9962C71.0778 55.4795 70.7044 54.2895 69.9578 53.4262C69.2344 52.5395 68.0561 52.0962 66.4228 52.0962C64.8361 52.0962 63.5994 52.5978 62.7128 53.6012C61.8494 54.5812 61.3828 55.8995 61.3128 57.5562H58.2328C58.3261 54.9428 59.1194 52.9245 60.6128 51.5012C62.1061 50.0778 64.0311 49.3662 66.3878 49.3662C68.7911 49.3662 70.6928 50.0312 72.0928 51.3612C73.5161 52.6912 74.2278 54.5228 74.2278 56.8562C74.2278 58.7928 73.6444 60.6828 72.4778 62.5262C71.3344 64.3462 70.0278 65.9562 68.5578 67.3562C67.0878 68.7328 65.2094 70.3428 62.9228 72.1862H74.9628V74.8462H58.1278V72.5712Z" fill="white"/>
<path d="M28.528 82.7466C29.44 82.7466 30.228 82.9186 30.892 83.2626C31.564 83.5986 32.076 84.0826 32.428 84.7146C32.788 85.3466 32.968 86.0906 32.968 86.9466C32.968 87.8026 32.788 88.5466 32.428 89.1786C32.076 89.8026 31.564 90.2826 30.892 90.6186C30.228 90.9466 29.44 91.1106 28.528 91.1106H25.924V82.7466H28.528ZM28.528 90.2106C29.608 90.2106 30.432 89.9266 31 89.3586C31.568 88.7826 31.852 87.9786 31.852 86.9466C31.852 85.9066 31.564 85.0946 30.988 84.5106C30.42 83.9266 29.6 83.6346 28.528 83.6346H27.016V90.2106H28.528ZM34.0004 87.7986C34.0004 87.1266 34.1364 86.5386 34.4084 86.0346C34.6804 85.5226 35.0524 85.1266 35.5244 84.8466C36.0044 84.5666 36.5364 84.4266 37.1204 84.4266C37.6964 84.4266 38.1964 84.5506 38.6204 84.7986C39.0444 85.0466 39.3604 85.3586 39.5684 85.7346V84.5346H40.6724V91.1106H39.5684V89.8866C39.3524 90.2706 39.0284 90.5906 38.5964 90.8466C38.1724 91.0946 37.6764 91.2186 37.1084 91.2186C36.5244 91.2186 35.9964 91.0746 35.5244 90.7866C35.0524 90.4986 34.6804 90.0946 34.4084 89.5746C34.1364 89.0546 34.0004 88.4626 34.0004 87.7986ZM39.5684 87.8106C39.5684 87.3146 39.4684 86.8826 39.2684 86.5146C39.0684 86.1466 38.7964 85.8666 38.4524 85.6746C38.1164 85.4746 37.7444 85.3746 37.3364 85.3746C36.9284 85.3746 36.5564 85.4706 36.2204 85.6626C35.8844 85.8546 35.6164 86.1346 35.4164 86.5026C35.2164 86.8706 35.1164 87.3026 35.1164 87.7986C35.1164 88.3026 35.2164 88.7426 35.4164 89.1186C35.6164 89.4866 35.8844 89.7706 36.2204 89.9706C36.5564 90.1626 36.9284 90.2586 37.3364 90.2586C37.7444 90.2586 38.1164 90.1626 38.4524 89.9706C38.7964 89.7706 39.0684 89.4866 39.2684 89.1186C39.4684 88.7426 39.5684 88.3066 39.5684 87.8106ZM48.1818 84.5346L44.2218 94.2066H43.0938L44.3898 91.0386L41.7378 84.5346H42.9498L45.0138 89.8626L47.0538 84.5346H48.1818ZM51.6075 91.2186C51.1035 91.2186 50.6515 91.1346 50.2515 90.9666C49.8515 90.7906 49.5355 90.5506 49.3035 90.2466C49.0715 89.9346 48.9435 89.5786 48.9195 89.1786H50.0475C50.0795 89.5066 50.2315 89.7746 50.5035 89.9826C50.7835 90.1906 51.1475 90.2946 51.5955 90.2946C52.0115 90.2946 52.3395 90.2026 52.5795 90.0186C52.8195 89.8346 52.9395 89.6026 52.9395 89.3226C52.9395 89.0346 52.8115 88.8226 52.5555 88.6866C52.2995 88.5426 51.9035 88.4026 51.3675 88.2666C50.8795 88.1386 50.4795 88.0106 50.1675 87.8826C49.8635 87.7466 49.5995 87.5506 49.3755 87.2946C49.1595 87.0306 49.0515 86.6866 49.0515 86.2626C49.0515 85.9266 49.1515 85.6186 49.3515 85.3386C49.5515 85.0586 49.8355 84.8386 50.2035 84.6786C50.5715 84.5106 50.9915 84.4266 51.4635 84.4266C52.1915 84.4266 52.7795 84.6106 53.2275 84.9786C53.6755 85.3466 53.9155 85.8506 53.9475 86.4906H52.8555C52.8315 86.1466 52.6915 85.8706 52.4355 85.6626C52.1875 85.4546 51.8515 85.3506 51.4275 85.3506C51.0355 85.3506 50.7235 85.4346 50.4915 85.6026C50.2595 85.7706 50.1435 85.9906 50.1435 86.2626C50.1435 86.4786 50.2115 86.6586 50.3475 86.8026C50.4915 86.9386 50.6675 87.0506 50.8755 87.1386C51.0915 87.2186 51.3875 87.3106 51.7635 87.4146C52.2355 87.5426 52.6195 87.6706 52.9155 87.7986C53.2115 87.9186 53.4635 88.1026 53.6715 88.3506C53.8875 88.5986 53.9995 88.9226 54.0075 89.3226C54.0075 89.6826 53.9075 90.0066 53.7075 90.2946C53.5075 90.5826 53.2235 90.8106 52.8555 90.9786C52.4955 91.1386 52.0795 91.2186 51.6075 91.2186ZM59.8402 82.2306V91.1106H58.7482V82.2306H59.8402ZM67.7013 87.5706C67.7013 87.7786 67.6893 87.9986 67.6653 88.2306H62.4093C62.4493 88.8786 62.6693 89.3866 63.0693 89.7546C63.4773 90.1146 63.9693 90.2946 64.5453 90.2946C65.0173 90.2946 65.4093 90.1866 65.7213 89.9706C66.0413 89.7466 66.2653 89.4506 66.3933 89.0826H67.5693C67.3933 89.7146 67.0413 90.2306 66.5133 90.6306C65.9853 91.0226 65.3293 91.2186 64.5453 91.2186C63.9213 91.2186 63.3613 91.0786 62.8653 90.7986C62.3773 90.5186 61.9933 90.1226 61.7133 89.6106C61.4333 89.0906 61.2933 88.4906 61.2933 87.8106C61.2933 87.1306 61.4293 86.5346 61.7013 86.0226C61.9733 85.5106 62.3533 85.1186 62.8413 84.8466C63.3373 84.5666 63.9053 84.4266 64.5453 84.4266C65.1693 84.4266 65.7213 84.5626 66.2013 84.8346C66.6813 85.1066 67.0493 85.4826 67.3053 85.9626C67.5693 86.4346 67.7013 86.9706 67.7013 87.5706ZM66.5733 87.3426C66.5733 86.9266 66.4813 86.5706 66.2973 86.2746C66.1133 85.9706 65.8613 85.7426 65.5413 85.5906C65.2293 85.4306 64.8813 85.3506 64.4973 85.3506C63.9453 85.3506 63.4733 85.5266 63.0813 85.8786C62.6973 86.2306 62.4773 86.7186 62.4213 87.3426H66.5733ZM71.8188 85.4346H70.4388V91.1106H69.3468V85.4346H68.4948V84.5346H69.3468V84.0666C69.3468 83.3306 69.5348 82.7946 69.9108 82.4586C70.2948 82.1146 70.9068 81.9426 71.7467 81.9426V82.8546C71.2668 82.8546 70.9268 82.9506 70.7268 83.1426C70.5348 83.3266 70.4388 83.6346 70.4388 84.0666V84.5346H71.8188V85.4346ZM74.424 85.4346V89.3106C74.424 89.6306 74.492 89.8586 74.628 89.9946C74.764 90.1226 75 90.1866 75.336 90.1866H76.14V91.1106H75.156C74.548 91.1106 74.092 90.9706 73.788 90.6906C73.484 90.4106 73.332 89.9506 73.332 89.3106V85.4346H72.48V84.5346H73.332V82.8786H74.424V84.5346H76.14V85.4346H74.424Z" fill="white"/>
<rect x="48" y="21.3145" width="3" height="7.81106" fill="#090B13"/>
</svg>
